<?xml version="1.0" encoding="utf-8"?><svg xml:space="preserve" viewBox="0 0 100 100" y="0" x="0" xmlns="http://www.w3.org/2000/svg" id="Layer_1" version="1.1" width="146px" height="146px" xmlns:xlink="http://www.w3.org/1999/xlink" style="width:100%;height:100%;background-size:initial;background-repeat-y:initial;background-repeat-x:initial;background-position-y:initial;background-position-x:initial;background-origin:initial;background-image:initial;background-color:rgb(255, 255, 255);background-clip:initial;background-attachment:initial;animation-play-state:paused" ><g class="ldl-scale" style="transform-origin:50% 50%;transform:rotate(0deg) scale(0.8, 0.8);animation-play-state:paused" ><path fill="#010101" d="M85.9 12.2H14.1c-.4 0-.8 0-1.2.1h74.3c-.5 0-.9-.1-1.3-.1z" style="fill:rgb(69, 123, 157);animation-play-state:paused" ></path>
<path d="M13.6 18.3h72.9v47.1H13.6z" fill="#e0e0e0" style="fill:rgb(224, 224, 224);animation-play-state:paused" ></path>
<path fill="#010101" d="M85.9 71.3c3.6 0 6.6-2.9 6.6-6.5v-46c0-3.2-2.3-5.9-5.4-6.4H12.9c-3.1.6-5.4 3.2-5.4 6.4v46c0 3.6 2.9 6.5 6.6 6.5h71.8zm-72.3-6v-47h72.9v47.1H13.6z" style="fill:rgb(69, 123, 157);animation-play-state:paused" ></path>
<path d="M62.2 82.7h-3.6l-2.9-11.4H44.1l-3 11.4h-3.3 24.4z" fill="#333" style="fill:rgb(69, 123, 157);animation-play-state:paused" ></path>
<path d="M35.3 85.2c0 1.5 1.1 2.6 2.6 2.6h24.3c1.4 0 2.6-1.1 2.6-2.5v-.1c0-1.4-1.1-2.5-2.5-2.5H37.8c-1.4 0-2.5 1.1-2.5 2.5z" style="fill:rgb(69, 123, 157);animation-play-state:paused" ></path>
<metadata xmlns:d="https://loading.io/stock/" style="animation-play-state:paused" ><d:name style="animation-play-state:paused" >imac</d:name>
<d:tags style="animation-play-state:paused" >screen,monitor,apple,lcd,crt,display,computer,imac,web application</d:tags>
<d:license style="animation-play-state:paused" >pro</d:license>
<d:slug style="animation-play-state:paused" >fwk5j9</d:slug></metadata></g><!-- generated by https://loading.io/ --></svg>